<?xml version="1.0" encoding="UTF-8" standalone="no"?>
<svg
   xmlns:dc="http://purl.org/dc/elements/1.1/"
   xmlns:cc="http://creativecommons.org/ns#"
   xmlns:rdf="http://www.w3.org/1999/02/22-rdf-syntax-ns#"
   xmlns:svg="http://www.w3.org/2000/svg"
   xmlns="http://www.w3.org/2000/svg"
   xmlns:sodipodi="http://sodipodi.sourceforge.net/DTD/sodipodi-0.dtd"
   xmlns:inkscape="http://www.inkscape.org/namespaces/inkscape"
   enable-background="new 0 0 2000 2000"
   version="1.1"
   viewBox="0 0 2000 2000"
   id="svg1288"
   sodipodi:docname="presentation.svg"
   inkscape:version="1.0.1 (3bc2e813f5, 2020-09-07, custom)">
  <metadata
     id="metadata1294">
    <rdf:RDF>
      <cc:Work
         rdf:about="">
        <dc:format>image/svg+xml</dc:format>
        <dc:type
           rdf:resource="http://purl.org/dc/dcmitype/StillImage" />
      </cc:Work>
    </rdf:RDF>
  </metadata>
  <defs
     id="defs1292" />
  <sodipodi:namedview
     pagecolor="#ffffff"
     bordercolor="#666666"
     borderopacity="1"
     objecttolerance="10"
     gridtolerance="10"
     guidetolerance="10"
     inkscape:pageopacity="0"
     inkscape:pageshadow="2"
     inkscape:window-width="1920"
     inkscape:window-height="1011"
     id="namedview1290"
     showgrid="false"
     inkscape:zoom="0.3575"
     inkscape:cx="1000"
     inkscape:cy="1000"
     inkscape:window-x="0"
     inkscape:window-y="0"
     inkscape:window-maximized="1"
     inkscape:current-layer="svg1288" />
  <path
     d="m 1746.9359,1765.144 h -176.8373 c -50.3596,0 -91.1875,-48.9034 -91.1875,-109.3134 0,-60.4025 40.8279,-109.3119 91.1875,-109.3119 h 60.7849 c 50.3544,0 91.1823,-48.9035 91.1823,-109.3134 0,-60.41 -40.8279,-109.3134 -91.1823,-109.3134 h -364.7246 c -50.3582,0 -91.1849,-48.9035 -91.1849,-109.3134 0,-60.4086 40.8267,-109.3135 91.1849,-109.3135 h 613.4118 c 50.3532,0 91.1799,-48.9034 91.1799,-109.31339 0,-60.41 -40.8267,-109.31342 -91.1799,-109.31342 h -436.5745 c -50.3544,0 -91.1773,-48.91098 -91.1773,-109.31341 0,-60.40999 40.8229,-109.31341 91.1773,-109.31341 h 165.7874 c 50.3594,0 91.1811,-48.90492 91.1811,-109.31341 0,-60.41001 -40.8217,-109.31341 -91.1811,-109.31341 H 1244.059 c -50.3532,0 -91.1811,-48.90493 -91.1811,-109.31494 0,-60.40999 40.8279,-109.31341 91.1811,-109.31341 h 55.2599 c 50.3582,0 91.1849,-48.9034 91.1849,-109.31341 0,-60.403938 -40.8267,-109.313412 -91.1849,-109.313412 H 746.69443 c -50.35443,0 -91.18113,48.909474 -91.18113,109.313412 0,60.41001 40.8267,109.31341 91.18113,109.31341 h 33.15874 c 50.3595,0 91.18241,48.90493 91.18241,109.31341 0,60.40849 -40.82291,109.31494 -91.18241,109.31494 h -60.79122 c -50.35445,0 -91.18114,48.9034 -91.18114,109.31341 0,60.40849 40.82669,109.31341 91.18114,109.31341 h -11.04996 c 50.35444,0 91.18113,48.90492 91.18113,109.31341 0,60.40395 -40.82669,109.31341 -91.18113,109.31341 H 105.65006 c -50.359496,0 -91.186192,48.90342 -91.186192,109.31342 0,60.40999 40.826696,109.31339 91.186192,109.31339 h 154.72473 c 50.35445,0 91.18115,48.9049 91.18115,109.3135 0,60.4099 -40.8267,109.3134 -91.18115,109.3134 h -22.10371 c -50.3595,0 -91.18619,48.9034 -91.18619,109.3134 0,60.4099 40.82669,109.3134 91.18619,109.3134 H 652.7331 c 50.35445,0 91.18115,48.9094 91.18115,109.3119 0,60.41 -40.8267,109.3134 -91.18115,109.3134 H 442.73329 c -50.3595,0 -91.18621,48.9049 -91.18621,109.3149 0,60.4085 40.82671,109.3119 91.18621,109.3119 H 1746.8562 c 50.3583,0 91.1862,-48.9034 91.1862,-109.3119 0,-60.41 -40.8267,-109.3149 -91.1849,-109.3149 z"
     fill="#a7cfe8"
     id="path890"
     style="stroke-width:1.38472" />
  <polygon
     points="323.53,1089.8 450.39,936.79 438.75,926.19 311.52,1080.4 "
     fill="#9db6c9"
     id="polygon892"
     transform="matrix(1.2642976,0,0,1.51662,-267.97514,-516.61067)" />
  <path
     d="m 141.05039,1142.2682 c -1.0873,0 -2.17964,-0.4201 -3.10511,-1.2815 l -15.18801,-14.1683 c -1.07718,-1.0086 -1.77001,-2.4964 -1.923,-4.1283 -0.14791,-1.6303 0.25792,-3.2622 1.12776,-4.5316 L 282.83125,884.2502 c 0.88121,-1.28155 2.16574,-2.07019 3.54509,-2.18849 1.37935,-0.11824 2.74353,0.45044 3.76761,1.56516 l 14.71263,16.07314 c 2.00265,2.18089 2.21379,5.87083 0.48928,8.3687 L 144.95708,1140.0661 c -0.99754,1.4392 -2.44136,2.193 -3.90037,2.193 z m -7.95875,-21.1963 7.19891,6.7141 154.18108,-223.00381 -7.20776,-7.87581 -154.16844,224.17162 z"
     fill="#305d8a"
     id="path894"
     style="stroke-width:1.38472" />
  <polygon
     points="405.62,1280.3 327.04,1126.8 314.27,1133.8 389.6,1280.3 "
     fill="#9db6c9"
     id="polygon896"
     transform="matrix(1.2642976,0,0,1.51662,-267.97514,-516.61067)" />
  <path
     d="m 244.84923,1431.1843 h -20.25026 c -1.89771,0 -3.63359,-1.2709 -4.50469,-3.2987 L 124.85347,1205.716 c -1.25038,-2.9241 -0.33629,-6.5185 2.06713,-8.1018 l 16.14256,-10.6285 c 1.20614,-0.7825 2.60571,-0.96 3.92564,-0.4792 1.30476,0.4792 2.39206,1.5773 3.02041,3.0363 l 99.34849,232.8011 c 0.80157,1.8851 0.73203,4.1343 -0.18837,5.9361 -0.91788,1.8032 -2.55515,2.9073 -4.3201,2.9073 z m -17.16032,-12.1466 h 8.87916 l -93.19896,-218.3933 -7.25706,4.7728 91.57686,213.6311 z"
     fill="#305d8a"
     id="path898"
     style="stroke-width:1.38472" />
  <path
     d="m 288.5307,708.09025 c 10.86665,13.04748 10.86665,34.19522 0,47.23664 -10.87801,13.04141 -28.50738,13.04141 -39.38287,0 -10.8679,-13.04142 -10.8679,-34.18916 0,-47.23664 10.87549,-13.04142 28.50486,-13.04142 39.38287,0 z"
     fill="#9db6c9"
     id="path900"
     style="stroke-width:1.38472" />
  <path
     d="m 268.83295,771.18163 c -8.79066,0 -17.05664,-4.10397 -23.27193,-11.55967 -12.82503,-15.38915 -12.82503,-40.42855 0,-55.82526 6.21529,-7.45572 14.48127,-11.55969 23.27193,-11.55969 8.79066,0 17.05663,4.10397 23.27066,11.55969 12.82504,15.39521 12.82504,40.43459 0,55.82526 -6.21529,7.4557 -14.48127,11.55967 -23.27066,11.55967 z m 0,-66.79649 c -6.08633,0 -11.80601,2.84063 -16.11347,8.00017 -8.8741,10.65729 -8.8741,27.99832 0,38.64954 4.3062,5.15955 10.02714,8.00018 16.11347,8.00018 6.08506,0 11.80601,-2.84215 16.1122,-8.00018 8.87537,-10.65122 8.87537,-27.99225 0,-38.64954 -4.30619,-5.15954 -10.02714,-8.00017 -16.1122,-8.00017 z"
     fill="#305d8a"
     id="path902"
     style="stroke-width:1.38472" />
  <path
     d="m 443.04051,857.68963 c 19.10353,22.92219 19.10353,60.08394 0,83.00461 -19.10353,22.91006 -50.08767,22.91612 -69.19501,0 -19.10353,-22.92219 -19.09848,-60.09 0,-83.00461 19.1086,-22.91612 50.09148,-22.91612 69.19501,0 z"
     fill="#ffffff"
     id="path904"
     style="stroke-width:1.38472" />
  <path
     d="m 408.44933,963.94402 c -14.42184,0 -27.9827,-6.73683 -38.17674,-18.96533 -21.04676,-25.25324 -21.04676,-66.33999 0,-91.59323 10.1991,-12.2285 23.7549,-18.96533 38.17674,-18.96533 14.4269,0 27.9827,6.73683 38.17672,18.96533 21.04676,25.25324 21.04676,66.33999 0,91.59323 -10.19402,12.2285 -23.75488,18.96533 -38.17672,18.96533 z m 0,-117.3788 c -11.71752,0 -22.73208,5.47348 -31.01828,15.40735 -17.09583,20.51379 -17.09583,53.9037 0,74.4175 8.2862,9.93386 19.30076,15.40886 31.01828,15.40886 11.71751,0 22.73207,-5.47348 31.01827,-15.40886 17.09583,-20.5138 17.09583,-53.90371 0,-74.4175 -8.28115,-9.93387 -19.29571,-15.40735 -31.01827,-15.40735 z"
     fill="#305d8a"
     id="path906"
     style="stroke-width:1.38472" />
  <rect
     transform="matrix(0.64031819,-0.76810977,0.64031819,0.76810977,0,0)"
     x="-322.2533"
     y="677.82117"
     width="111.81264"
     height="39.130093"
     fill="#9db6c9"
     id="rect908"
     style="stroke-width:1.39616" />
  <path
     d="m 252.72579,804.35011 c -1.29464,0 -2.59054,-0.593 -3.57922,-1.779 l -25.05585,-30.05637 c -1.97736,-2.37199 -1.97736,-6.21511 0,-8.5871 l 71.59844,-85.8877 c 0.94949,-1.13746 2.23527,-1.779 3.57922,-1.779 1.34522,0 2.62975,0.64154 3.57923,1.779 l 25.05585,30.06243 c 1.97736,2.372 1.97736,6.21511 0,8.58711 l -71.59843,85.88163 c -0.98869,1.186 -2.28332,1.779 -3.57924,1.779 z m -17.89739,-36.12892 17.89739,21.46927 64.43999,-77.29453 -17.8974,-21.47534 z"
     fill="#305d8a"
     id="path910"
     style="stroke-width:1.38472" />
  <polygon
     points="392.03,869.81 471.31,790.53 598.73,895.3 496.79,997.23 "
     fill="#9db6c9"
     id="polygon912"
     transform="matrix(1.2642976,0,0,1.51662,-267.97514,-516.61067)" />
  <path
     d="m 360.11523,1000.0092 h -0.24653 c -1.4236,0 -2.75364,0.049 -3.66267,-1.27999 L 223.75821,805.95166 c -1.65749,-2.41294 -1.51336,-5.69945 0.33125,-7.91069 l 100.23351,-120.1254 c 1.84841,-2.20668 4.79548,-2.31891 6.79307,-0.3382 l 161.09679,158.91144 c 1.10247,1.09044 1.77507,2.69805 1.84461,4.40577 0.0683,1.71984 -0.47032,3.39268 -1.47796,4.60295 L 363.70963,999.16145 c -0.94949,1.14505 -2.24034,0.84775 -3.5805,0.84775 z M 234.49084,802.96998 360.48188,986.78432 481.46504,841.65593 328.23218,690.5202 234.4959,802.96392 Z"
     fill="#305d8a"
     id="path914"
     style="stroke-width:1.38472" />
  <g
     opacity="0.2"
     id="g918"
     transform="matrix(1.2642976,0,0,1.51662,-267.97514,-516.61067)">
    <polygon
       points="471.58,795.94 434.5,833 544.93,943.43 592.6,895.77 "
       fill="#9db6c9"
       id="polygon916" />
  </g>
  <g
     opacity="0.2"
     id="g922"
     transform="matrix(1.2642976,0,0,1.51662,-267.97514,-516.61067)">
    <rect
       transform="matrix(0.7071,-0.7071,0.7071,0.7071,-445.5,548.01)"
       x="420.73001"
       y="807.77002"
       width="36.040001"
       height="8.0080004"
       fill="#9db6c9"
       id="rect920" />
  </g>
  <g
     opacity="0.2"
     id="g926"
     transform="matrix(1.2642976,0,0,1.51662,-267.97514,-516.61067)">
    <path
       d="m 427.9,805.64 c 0,0 -11.571,-3.136 -19.591,8.932 0,0 6.14,-1.146 9.209,1.45 z"
       fill="#9db6c9"
       id="path924" />
  </g>
  <g
     opacity="0.2"
     id="g930"
     transform="matrix(1.2642976,0,0,1.51662,-267.97514,-516.61067)">
    <polyline
       points="530.41 968.8 536.44 968.92 567.58 937.77 570.41 934.94 570.17 929.52 530.77 968.92"
       fill="#9db6c9"
       id="polyline928" />
  </g>
  <path
     d="m 164.94562,1159.7093 c 0,23.8428 -16.11221,43.1646 -35.98697,43.1646 -19.87475,0 -35.986961,-19.3218 -35.986961,-43.1646 0,-23.8473 16.112211,-43.1751 35.986961,-43.1751 19.87476,0 35.98697,19.3278 35.98697,43.1751 z"
     fill="#9db6c9"
     id="path932"
     style="stroke-width:1.38472" />
  <path
     d="m 128.95106,1208.9994 c -22.63345,0 -41.049205,-22.0865 -41.049205,-49.237 0,-27.1551 18.415755,-49.2477 41.049205,-49.2477 22.63346,0 41.04923,22.0911 41.04923,49.2477 0,27.1505 -18.41577,49.237 -41.04923,49.237 z m 0,-86.3381 c -17.05157,0 -30.923446,16.6404 -30.923446,37.1011 0,20.4501 13.873136,37.0905 30.923446,37.0905 17.05033,0 30.92473,-16.6404 30.92473,-37.0905 0,-20.4622 -13.87314,-37.1011 -30.92473,-37.1011 z"
     fill="#305d8a"
     id="path934"
     style="stroke-width:1.38472" />
  <g
     opacity="0.2"
     id="g938"
     transform="matrix(1.2642976,0,0,1.51662,-267.97514,-516.61067)">
    <path
       d="m 313.52,1080.9 v 48.919 c 12.013,0 24.459,-10.949 24.459,-24.456 0.001,-13.514 -12.446,-24.463 -24.459,-24.463 z"
       fill="#9db6c9"
       id="path936" />
  </g>
  <path
     d="m 145.50073,1159.7093 c 0,10.9546 -7.40626,19.8389 -16.54208,19.8389 -9.13581,0 -16.54206,-8.8843 -16.54206,-19.8389 0,-10.9636 7.40625,-19.8495 16.54206,-19.8495 9.13582,0 16.54208,8.8844 16.54208,19.8495 z"
     fill="#9db6c9"
     id="path940"
     style="stroke-width:1.38472" />
  <path
     d="m 128.95106,1185.6435 c -11.91473,0 -21.60431,-11.6234 -21.60431,-25.9114 0,-14.2927 9.69084,-25.9221 21.60431,-25.9221 11.91475,0 21.60559,11.6294 21.60559,25.9221 0,14.288 -9.69084,25.9114 -21.60559,25.9114 z m 0,-39.6869 c -6.3278,0 -11.47982,6.1787 -11.47982,13.7755 0,7.5922 5.15202,13.7663 11.47982,13.7663 6.32782,0 11.47983,-6.1741 11.47983,-13.7663 0,-7.5968 -5.15201,-13.7755 -11.47983,-13.7755 z"
     fill="#305d8a"
     id="path942"
     style="stroke-width:1.38472" />
  <path
     d="m 344.18508,1552.6656 c 1.22638,-7.5013 1.90783,-15.2421 1.90783,-23.1755 0,-66.02 -44.61453,-119.5385 -99.65067,-119.5385 -55.03614,0 -99.65446,53.5185 -99.65446,119.5385 0,7.9334 0.67767,15.6742 1.90783,23.1755 h 195.48568 z"
     fill="#9db6c9"
     id="path944"
     style="stroke-width:1.38472" />
  <path
     d="M 344.18508,1558.732 H 148.69939 c -2.41733,0 -4.49836,-2.0535 -4.96868,-4.8986 -1.33005,-8.1019 -2.00265,-16.2962 -2.00265,-24.3509 0,-69.2655 46.9775,-125.611 104.71797,-125.611 57.74047,0 104.71292,56.3455 104.71292,125.611 0,8.0229 -0.6726,16.2126 -2.00139,24.3447 -0.46526,2.8453 -2.5463,4.9048 -4.96995,4.9048 z M 152.94743,1546.5854 H 339.9244 c 0.73203,-5.7359 1.10247,-11.4702 1.10247,-17.1029 0,-62.5621 -42.43362,-113.4644 -94.58842,-113.4644 -52.15859,0 -94.59221,50.9023 -94.59221,113.4644 0,5.6509 0.37043,11.3852 1.0974,17.1029 z"
     fill="#305d8a"
     id="path946"
     style="stroke-width:1.38472" />
  <g
     opacity="0.2"
     id="g950"
     transform="matrix(1.2642976,0,0,1.51662,-267.97514,-516.61067)">
    <path
       d="m 406.88,1270.3 c -13.292,0 -25.793,3.324 -36.781,9.131 4.161,-0.677 8.404,-1.123 12.756,-1.123 43.531,0 78.818,35.288 78.818,78.819 0,2.456 -0.14,4.876 -0.367,7.273 h 22.884 c 0.97,-4.946 1.509,-10.05 1.509,-15.281 0,-43.531 -35.288,-78.819 -78.819,-78.819 z"
       fill="#9db6c9"
       id="path948" />
  </g>
  <g
     opacity="0.2"
     id="g954"
     transform="matrix(1.2642976,0,0,1.51662,-267.97514,-516.61067)">
    <polygon
       points="329.21,1076.9 443.49,938.61 440.99,935.27 325.75,1075.1 "
       fill="#9db6c9"
       id="polygon952" />
  </g>
  <g
     opacity="0.2"
     id="g958"
     transform="matrix(1.2642976,0,0,1.51662,-267.97514,-516.61067)">
    <polygon
       points="391.44,1268.3 395.11,1268.3 326.87,1135.1 323.7,1136.5 "
       fill="#9db6c9"
       id="polygon956" />
  </g>
  <path
     d="m 1735.5571,913.30408 c -8.9574,21.23723 -28.7336,30.86322 -44.1732,21.48596 -15.4283,-9.36362 -20.6839,-34.18462 -11.7213,-55.42185 8.9588,-21.24328 28.7362,-30.86321 44.1695,-21.49202 15.4383,9.3712 20.6852,34.1831 11.725,55.42791 z"
     fill="#afddb5"
     id="path960"
     style="stroke-width:1.38472" />
  <path
     d="m 1703.9498,944.44029 c -5.271,0 -10.294,-1.42259 -14.9364,-4.24047 -8.7845,-5.3385 -15.0427,-14.98724 -17.6231,-27.18542 -2.5173,-11.89181 -1.2125,-24.81948 3.6715,-36.4019 7.2786,-17.25155 21.4273,-28.4078 36.0477,-28.4078 5.2696,0 10.2939,1.42864 14.9262,4.24045 17.9013,10.86508 24.1658,39.39118 13.9604,63.58734 -7.2823,17.25913 -21.4273,28.4078 -36.0463,28.4078 z m 7.1583,-84.09051 c -10.8362,0 -21.4373,8.54009 -27.0091,21.74682 -3.7815,8.9617 -4.8106,18.88343 -2.8965,27.92855 1.8497,8.7418 6.2481,15.60905 12.385,19.33387 3.2088,1.9519 6.6945,2.93618 10.3623,2.93618 10.8362,0 21.4361,-8.53402 27.0079,-21.74075 7.6882,-18.22522 3.4262,-39.42757 -9.4937,-47.26698 -3.2062,-1.94734 -6.6918,-2.93769 -10.3559,-2.93769 z"
     fill="#305d8a"
     id="path962"
     style="stroke-width:1.38472" />
  <g
     opacity="0.38"
     id="g966"
     transform="matrix(1.2642976,0,0,1.51662,-267.97514,-516.61067)">
    <path
       d="m 1575.4,906.28 c -0.499,-0.254 -1.016,-0.454 -1.524,-0.665 3.223,7.418 3.074,16.732 -1.212,25.199 -6.796,13.429 -21.448,19.783 -33.411,14.833 2.111,4.856 5.655,8.908 10.483,11.348 12.213,6.183 27.854,-0.164 34.939,-14.167 7.088,-14.009 2.938,-30.369 -9.275,-36.548 z"
       fill="#9db6c9"
       id="path964" />
  </g>
  <path
     d="m 1707.8691,931.50352 c 20.4968,46.85142 9.6403,102.12008 -24.2454,123.45138 -33.8971,21.3312 -77.9769,0.64 -98.4686,-46.2114 -20.4981,-46.84692 -9.6466,-102.11407 24.2454,-123.45291 33.8908,-21.33125 77.9718,-0.63849 98.4686,46.21293 z"
     fill="#afddb5"
     id="path968"
     style="stroke-width:1.38472" />
  <path
     d="m 1655.0215,1069.4704 c -29.7174,0 -58.8582,-22.7159 -74.2333,-57.8666 -10.481,-23.95197 -13.576,-50.76581 -8.7161,-75.50795 4.9194,-25.05153 17.3816,-44.99508 35.0919,-56.14527 9.5909,-6.03767 20.0428,-9.09821 31.0663,-9.09821 29.7185,0 58.8594,22.71442 74.2396,57.86512 10.4759,23.95349 13.576,50.7734 8.716,75.50951 -4.9244,25.056 -17.3828,44.9966 -35.0918,56.1467 -9.591,6.0362 -20.0467,9.0967 -31.0726,9.0967 z m -16.7899,-186.46839 c -9.3672,0 -18.2375,2.59646 -26.3606,7.70898 -15.0743,9.48949 -25.7096,26.6 -29.9462,48.17544 -4.2961,21.89088 -1.5185,45.71396 7.831,67.07557 13.6456,31.2014 39.2654,51.3649 65.2643,51.3649 9.3686,0 18.2439,-2.5965 26.3657,-7.709 15.0692,-9.4834 25.7044,-26.594 29.9411,-48.1694 4.3011,-21.89542 1.5235,-45.72001 -7.826,-67.08008 -13.6494,-31.20143 -39.269,-51.36641 -65.2693,-51.36641 z"
     fill="#305d8a"
     id="path970"
     style="stroke-width:1.38472" />
  <g
     opacity="0.38"
     id="g974"
     transform="matrix(1.2642976,0,0,1.51662,-267.97514,-516.61067)">
    <path
       d="m 1562.8,954.83 c -16.212,-30.893 -51.078,-44.536 -77.884,-30.47 -1.014,0.532 -1.943,1.153 -2.906,1.748 22.748,1.999 44.153,19.529 52.447,45.564 8.725,27.389 0.188,55.517 -19.208,69.727 9.698,1.057 19.478,-0.5 28.374,-5.169 26.802,-14.066 35.389,-50.508 19.177,-81.4 z"
       fill="#9db6c9"
       id="path972" />
  </g>
  <ellipse
     transform="matrix(0.927412,0.37404142,-0.26987992,0.96289399,0,0)"
     cx="1858.4415"
     cy="497.99216"
     rx="43.982269"
     ry="34.374912"
     fill="#afddb5"
     id="ellipse976"
     style="stroke-width:1.38899" />
  <path
     d="m 1598.7602,1217.6441 c -6.8513,0 -13.8188,-1.4134 -20.7042,-4.1888 -25.5666,-10.313 -40.8064,-35.454 -34.7024,-57.2418 4.2632,-15.2117 17.9719,-24.6602 35.7708,-24.6602 6.8512,0 13.8188,1.4119 20.7054,4.1874 25.5654,10.3145 40.8052,35.454 34.7011,57.2433 -4.2632,15.2102 -17.972,24.6601 -35.7707,24.6601 z m -19.637,-73.9442 c -13.1122,0 -23.3808,6.4274 -26.1685,16.381 -4.1583,14.825 8.8147,33.9935 28.3228,41.8587 5.8486,2.3614 11.7263,3.558 17.4815,3.558 13.112,0 23.3806,-6.4274 26.1684,-16.3795 4.1582,-14.8265 -8.816,-33.995 -28.3229,-41.8602 -5.8473,-2.3599 -11.7263,-3.558 -17.4813,-3.558 z"
     fill="#305d8a"
     id="path978"
     style="stroke-width:1.38472" />
  <g
     opacity="0.38"
     id="g982"
     transform="matrix(1.2642976,0,0,1.51662,-267.97514,-516.61067)">
    <path
       d="m 1476.1,1093.3 c -17.816,-5.99 -35.546,-1.075 -39.597,10.977 -0.544,1.619 -0.794,3.289 -0.81,4.975 7.637,-3.188 17.992,-3.434 28.393,0.066 15.424,5.186 25.838,16.842 25.735,27.697 5.443,-2.272 9.519,-6.029 11.203,-11.043 4.052,-12.052 -7.105,-26.682 -24.924,-32.672 z"
       fill="#9db6c9"
       id="path980" />
  </g>
  <path
     d="m 1861.8605,1022.7585 c 10.3028,18.747 -0.069,48.7685 -23.1771,67.0528 -23.1025,18.2844 -50.1964,17.8992 -60.5029,-0.8493 -10.3029,-18.7454 0.069,-48.7714 23.172,-67.0512 23.1126,-18.2844 50.1951,-17.9053 60.508,0.8477 z"
     fill="#afddb5"
     id="path984"
     style="stroke-width:1.38472" />
  <path
     d="m 1804.2085,1109.3575 c -13.4483,0 -24.1809,-6.0558 -30.228,-17.0437 -11.8263,-21.5224 -0.7851,-55.3749 24.6108,-75.467 11.7971,-9.3288 25.042,-14.4716 37.298,-14.4716 13.4483,0 24.181,6.0558 30.2268,17.0437 11.8262,21.5178 0.7814,55.3688 -24.6172,75.467 -11.7908,9.3303 -25.0355,14.4716 -37.2904,14.4716 z m 31.6796,-94.8357 c -10.294,0 -21.5614,4.424 -31.7213,12.4666 -20.388,16.1262 -30.3405,42.9795 -21.732,58.6355 4.1077,7.474 11.8401,11.5885 21.7737,11.5885 10.2977,0 21.5601,-4.43 31.7149,-12.4666 20.3894,-16.1323 30.3407,-42.9855 21.7384,-58.6355 -4.109,-7.4739 -11.8414,-11.5885 -21.7737,-11.5885 z"
     fill="#305d8a"
     id="path986"
     style="stroke-width:1.38472" />
  <g
     opacity="0.38"
     id="g990"
     transform="matrix(1.2642976,0,0,1.51662,-267.97514,-516.61067)">
    <path
       d="m 1684.6,1015 c -1.857,-2.815 -4.427,-4.97 -7.469,-6.526 4.356,13.93 -8.481,30.725 -28.983,37.717 -11.982,4.087 -23.933,3.902 -32.817,0.324 -0.21,4.419 0.743,8.587 3.082,12.138 8.152,12.361 29.582,12.615 47.855,0.56 18.277,-12.057 26.481,-31.852 18.332,-44.213 z"
       fill="#9db6c9"
       id="path988" />
  </g>
  <ellipse
     cx="1707.9955"
     cy="1159.406"
     rx="111.37704"
     ry="162.44514"
     fill="#afddb5"
     id="ellipse992"
     style="stroke-width:1.38472" />
  <path
     d="m 1707.9954,1327.9025 c -64.2073,0 -116.4405,-75.599 -116.4405,-168.5268 0,-92.9279 52.232,-168.52684 116.4405,-168.52684 64.2087,0 116.4407,75.59744 116.4407,168.52684 0,92.9294 -52.2332,168.5268 -116.4407,168.5268 z m 0,-324.9055 c -58.6204,0 -106.3147,70.1543 -106.3147,156.3787 0,86.2259 47.6943,156.3787 106.3147,156.3787 58.6206,0 106.3149,-70.1528 106.3149,-156.3787 0,-86.2244 -47.6943,-156.3787 -106.3149,-156.3787 z"
     fill="#305d8a"
     id="path994"
     style="stroke-width:1.38472" />
  <g
     opacity="0.38"
     id="g998"
     transform="matrix(1.2642976,0,0,1.51662,-267.97514,-516.61067)">
    <path
       d="m 1562.9,998 c -6.179,0 -12.2,0.782 -18.019,2.252 40.011,10.113 70.074,53.213 70.074,104.86 0,51.647 -30.063,94.75 -70.074,104.86 5.818,1.471 11.84,2.252 18.019,2.252 48.654,0 88.094,-47.957 88.094,-107.11 0,-59.153 -39.44,-107.11 -88.094,-107.11 z"
       fill="#9db6c9"
       id="path996" />
  </g>
  <path
     d="m 1839.6088,1518.2382 c 0,19.0139 -12.854,34.4274 -28.7046,34.4274 h -200.7831 c -15.8492,0 -28.7046,-15.4135 -28.7046,-34.4274 l -25.3124,-222.6549 c 0,-19.0124 12.8553,-34.4257 28.7046,-34.4257 h 251.4055 c 15.8505,0 28.7046,15.4133 28.7046,34.4257 l -25.3138,222.6549 z"
     fill="#e4c6aa"
     id="path1000"
     style="stroke-width:1.38472" />
  <path
     d="m 1810.9093,1558.732 h -200.783 c -18.5005,0 -33.5748,-17.9341 -33.767,-40.0736 l -25.2682,-222.2607 c -0.029,-0.2669 -0.045,-0.5445 -0.045,-0.8189 0,-22.3353 15.1475,-40.4999 33.7668,-40.4999 h 251.4056 c 18.6193,0 33.7668,18.1662 33.7668,40.4999 0,0.2744 -0.016,0.552 -0.045,0.8189 l -25.2669,222.2607 c -0.1948,22.1381 -15.269,40.0736 -33.7694,40.0736 z m -249.7366,-263.543 25.2682,222.2152 c 0.029,0.2668 0.044,0.5444 0.044,0.8174 0,15.6348 10.605,28.3547 23.6412,28.3547 h 200.7831 c 13.0387,0 23.6424,-12.7213 23.6424,-28.3547 0,-0.273 0.013,-0.5506 0.044,-0.8174 l 25.2682,-222.2152 c -0.1783,-15.4559 -10.7149,-27.9635 -23.6423,-27.9635 h -251.4056 c -12.9274,0 -23.4628,12.5076 -23.6398,27.9635 z"
     fill="#305d8a"
     id="path1002"
     style="stroke-width:1.38472" />
  <g
     opacity="0.38"
     id="g1006"
     transform="matrix(1.2642976,0,0,1.51662,-267.97514,-516.61067)">
    <path
       d="m 1664.3,1172.2 h -20.021 c 12.537,0 22.704,10.163 22.704,22.699 l -20.021,146.81 c 0,12.537 -10.167,22.7 -22.704,22.7 h 20.021 c 12.537,0 22.704,-10.163 22.704,-22.7 l 20.021,-146.81 c 0,-12.536 -10.167,-22.699 -22.704,-22.699 z"
       fill="#aa9e80"
       id="path1004" />
  </g>
  <path
     d="m 1500.3978,1469.7065 c 0,19.0138 -12.8541,34.4272 -28.7046,34.4272 H 541.89087 c -15.85049,0 -28.70461,-15.4134 -28.70461,-34.4272 V 718.70658 c 0,-19.01386 12.85412,-34.42727 28.70461,-34.42727 h 929.80233 c 15.8505,0 28.7046,15.41341 28.7046,34.42727 z"
     fill="#ffffff"
     id="path1008"
     style="stroke-width:1.38472" />
  <path
     d="M 1471.6983,1510.2002 H 541.89593 c -18.61931,0 -33.76686,-18.1676 -33.76686,-40.5013 V 718.699 c 0,-22.33526 15.14755,-40.50134 33.76686,-40.50134 h 929.80237 c 18.6193,0 33.7681,18.16608 33.7681,40.50134 v 750.9999 c 0,22.3337 -15.1488,40.4998 -33.7668,40.4998 z M 541.89593,690.34579 c -13.03743,0 -23.64236,12.72141 -23.64236,28.35473 v 750.99978 c 0,15.6334 10.60493,28.3547 23.64236,28.3547 h 929.80237 c 13.0374,0 23.6423,-12.7229 23.6423,-28.3547 V 718.70052 c 0,-15.63332 -10.6061,-28.35473 -23.6423,-28.35473 z"
     fill="#305d8a"
     id="path1010"
     style="stroke-width:1.38472" />
  <g
     opacity="0.2"
     id="g1014"
     transform="matrix(1.2642976,0,0,1.51662,-267.97514,-516.61067)">
    <path
       d="m 1372,791.78 h -7.328 c 9.952,0 18.02,8.067 18.02,18.019 v 490.52 h 12.013 v -485.84 c -10e-4,-12.538 -10.168,-22.7 -22.705,-22.7 z"
       fill="#9db6c9"
       id="path1012" />
  </g>
  <g
     opacity="0.2"
     id="g1018"
     transform="matrix(1.2642976,0,0,1.51662,-267.97514,-516.61067)">
    <path
       d="m 1350.6,1189.5 c 0,12.537 -10.167,22.699 -22.704,22.699 h -639.32 c -12.537,0 -22.704,-10.162 -22.704,-22.699 V 846.48 c 0,-12.537 10.167,-22.7 22.704,-22.7 h 639.32 c 12.537,0 22.704,10.164 22.704,22.7 z"
       fill="#9db6c9"
       id="path1016" />
  </g>
  <path
     d="m 1439.5851,1457.4218 c 0,19.0124 -12.854,34.4273 -28.7046,34.4273 H 602.5898 c -15.85049,0 -28.70461,-15.4149 -28.70461,-34.4273 V 785.37719 c 0,-19.01386 12.85412,-34.42727 28.70461,-34.42727 h 808.2907 c 15.8506,0 28.7046,15.41341 28.7046,34.42727 z"
     fill="#efefef"
     id="path1020"
     style="stroke-width:1.38472" />
  <path
     d="M 1410.8855,1498.0672 H 602.59486 c -18.61931,0 -33.76686,-18.166 -33.76686,-40.4998 V 785.52279 c 0,-22.33527 15.14755,-40.49982 33.76686,-40.49982 h 808.29064 c 18.6194,0 33.767,18.16607 33.767,40.49982 v 672.04461 c 0,22.3352 -15.1489,40.5014 -33.767,40.5014 z M 602.59486,757.16807 c -13.03744,0 -23.64111,12.7214 -23.64111,28.3532 v 672.04463 c 0,15.6333 10.60494,28.3532 23.64111,28.3532 h 808.29064 c 13.0375,0 23.6412,-12.7214 23.6412,-28.3532 V 785.52127 c 0,-15.63332 -10.6049,-28.3532 -23.6412,-28.3532 z"
     fill="#305d8a"
     id="path1022"
     style="stroke-width:1.38472" />
  <g
     opacity="0.41"
     id="g1026"
     transform="matrix(1.2642976,0,0,1.51662,-267.97514,-516.61067)">
    <path
       d="M 1326.9,839.83 H 894.63 l 451.98,316.34 V 862.53 c 0,-17.022 -8.591,-22.7 -19.709,-22.7 z"
       fill="#ffffff"
       id="path1024" />
  </g>
  <path
     d="M 1670.9516,1461.5166 H 347.61133 c -15.8505,0 -23.12274,16.2142 -18.57885,34.4274 1.5121,6.074 4.60836,20.171 5.91311,26.3087 3.92059,18.4209 17.06675,30.3597 32.91726,30.3597 H 1650.7456 c 15.8504,0 28.9966,-11.9388 32.9172,-30.3597 1.3048,-6.1377 4.3998,-20.2347 5.9132,-26.3087 4.5426,-18.2116 -2.7297,-34.4274 -18.5802,-34.4274 z"
     fill="#ffffff"
     id="path1028"
     style="stroke-width:1.38472" />
  <path
     d="M 1650.7229,1558.732 H 367.84009 c -18.17428,0 -33.37619,-14.0378 -37.82147,-34.9323 -1.25544,-5.8951 -4.36055,-20.0588 -5.85875,-26.0707 -2.90283,-11.6173 -1.6853,-22.9267 3.33648,-31.0103 4.49458,-7.2403 11.62901,-11.226 20.09223,-11.226 H 1670.9288 c 8.4632,0 15.5976,3.9857 20.0923,11.226 5.0243,8.0836 6.2405,19.393 3.3377,31.0163 -1.4982,6.0074 -4.6033,20.1712 -5.8588,26.0663 -4.4427,20.8929 -19.6446,34.9307 -37.8202,34.9307 z M 347.61133,1467.6363 c -5.26074,0 -9.39879,2.1884 -11.97417,6.3349 -3.08993,4.9744 -3.72714,12.3695 -1.75484,20.2756 1.55762,6.2622 4.65767,20.3834 5.96749,26.5515 3.33774,15.6621 14.33334,25.7871 28.01304,25.7871 H 1650.7456 c 13.6809,0 24.6765,-10.125 28.013,-25.7871 1.3098,-6.1665 4.4099,-20.2893 5.9675,-26.5454 1.9736,-7.9122 1.3351,-15.3073 -1.7548,-20.2817 -2.5767,-4.1449 -6.7147,-6.3349 -11.9755,-6.3349 H 347.65558 Z"
     fill="#305d8a"
     id="path1030"
     style="stroke-width:1.38472" />
  <g
     opacity="0.2"
     id="g1034"
     transform="matrix(1.2642976,0,0,1.51662,-267.97514,-516.61067)">
    <path
       d="M 1076.9,1304.3 H 898.18 v 13.339 c 0,12.537 10.167,22.7 22.704,22.7 h 174.83 c 12.536,0 22.703,-10.163 22.703,-22.7 V 1304.3 Z"
       fill="#9db6c9"
       id="path1032" />
  </g>
  <path
     d="M 1093.5469,1461.5166 H 872.87639 c 1.68025,17.0938 13.78337,30.3659 28.48715,30.3659 h 210.91016 c 14.7038,0 26.8056,-13.2735 28.4871,-30.3659 h -47.2114 z"
     fill="#9db6c9"
     id="path1036"
     style="stroke-width:1.38472" />
  <path
     d="M 1112.2585,1498.0672 H 901.34837 c -17.10089,0 -31.51261,-15.3618 -33.51526,-35.727 -0.16815,-1.7214 0.28193,-3.4518 1.24533,-4.7455 0.9596,-1.2967 2.33895,-2.0398 3.78277,-2.0398 h 267.87929 c 1.4439,0 2.822,0.7416 3.7816,2.0398 0.9646,1.2937 1.4147,3.0241 1.2453,4.7455 -2.0013,20.3652 -16.4131,35.727 -33.514,35.727 z m -232.98477,-30.3657 c 3.41614,10.7452 12.08796,18.2191 22.06958,18.2191 h 210.91009 c 9.983,0 18.6535,-7.4739 22.0709,-18.2191 H 879.27753 Z"
     fill="#305d8a"
     id="path1038"
     style="stroke-width:1.38472" />
  <g
     opacity="0.2"
     id="g1042"
     transform="matrix(1.2642976,0,0,1.51662,-267.97514,-516.61067)">
    <path
       d="m 480.37,1348.4 c 4.802,7.478 13.057,12.014 22.559,12.014 h 1014.7 c 9.503,0 17.758,-4.536 22.56,-12.014 h -1059.8 z"
       fill="#9db6c9"
       id="path1040" />
  </g>
  <g
     opacity="0.33"
     id="g1046"
     transform="matrix(1.2642976,0,0,1.51662,-267.97514,-516.61067)">
    <path
       d="M 1327.9,835.82 H 688.58 c -12.537,0 -22.704,10.163 -22.704,22.7 v 12.013 c 0,-12.537 10.167,-22.7 22.704,-22.7 h 639.32 c 12.537,0 22.704,10.164 22.704,22.7 V 858.52 c 0,-12.537 -10.167,-22.7 -22.704,-22.7 z"
       fill="#9db6c9"
       id="path1044" />
  </g>
  <g
     opacity="0.2"
     id="g1050"
     transform="matrix(1.2642976,0,0,1.51662,-267.97514,-516.61067)">
    <rect
       x="617.84003"
       y="1292.3"
       width="764.82001"
       height="8.0089998"
       fill="#9db6c9"
       id="rect1048" />
  </g>
  <ellipse
     cx="1009.3447"
     cy="715.33966"
     fill="#305d8a"
     id="circle1052"
     rx="5.6956606"
     ry="6.8323731"
     style="stroke-width:1.38472" />
  <g
     opacity="0.2"
     id="g1056"
     transform="matrix(1.2642976,0,0,1.51662,-267.97514,-516.61067)">
    <path
       d="m 1366.6,791.98 c 0.665,-0.078 1.314,-0.203 2.002,-0.203 h -2.002 z"
       fill="#9db6c9"
       id="path1054" />
  </g>
  <path
     d="m 1971.2222,1558.732 h -25.3124 c -2.798,0 -5.0636,-2.7178 -5.0636,-6.074 0,-3.3564 2.2656,-6.0726 5.0636,-6.0726 h 25.3124 c 2.7991,0 5.0636,2.7162 5.0636,6.0726 0,3.3562 -2.2645,6.074 -5.0636,6.074 z m -65.813,0 h -40.5004 c -2.7993,0 -5.0624,-2.7178 -5.0624,-6.074 0,-3.3564 2.2631,-6.0726 5.0624,-6.0726 h 40.5004 c 2.7979,0 5.0622,2.7162 5.0622,6.0726 0,3.3562 -2.2655,6.074 -5.0622,6.074 z"
     fill="#305d8a"
     id="path1058"
     style="stroke-width:1.38472" />
  <path
     d="M 1864.8948,1558.732 H 209.42361 c -2.79789,0 -5.06225,-2.7178 -5.06225,-6.074 0,-3.3564 2.26436,-6.0726 5.06225,-6.0726 H 1864.8948 c 2.7992,0 5.0623,2.7162 5.0623,6.0726 0,3.3562 -2.2631,6.074 -5.0623,6.074 z"
     fill="#305d8a"
     id="path1060"
     style="stroke-width:1.38472" />
  <path
     d="m 204.3917,1558.732 c -2.79284,0 -5.08753,-2.7178 -5.08753,-6.074 0,-3.3564 2.23907,-6.0726 5.03823,-6.0726 h 0.0494 c 2.79789,0 5.06224,2.7162 5.06224,6.0726 0,3.3562 -2.26435,6.074 -5.06224,6.074 z m -40.54982,0 h -40.50177 c -2.79789,0 -5.06224,-2.7178 -5.06224,-6.074 0,-3.3564 2.26435,-6.0726 5.06224,-6.0726 h 40.50177 c 2.79789,0 5.06226,2.7162 5.06226,6.0726 0,3.3562 -2.26437,6.074 -5.06226,6.074 z m -81.001009,0 H 42.3391 c -2.797891,0 -5.062247,-2.7178 -5.062247,-6.074 0,-3.3564 2.264356,-6.0726 5.062247,-6.0726 h 40.501771 c 2.797891,0 5.062248,2.7162 5.062248,6.0726 0,3.3562 -2.265621,6.074 -5.062248,6.074 z"
     fill="#305d8a"
     id="path1062"
     style="stroke-width:1.38472" />
  <line
     x1="1723.2935"
     x2="1750.9817"
     y1="902.3996"
     y2="918.02075"
     fill="#ffffff"
     id="line1064"
     style="stroke-width:1.38472" />
  <path
     d="m 1750.9816,924.10242 c -0.7206,0 -1.4577,-0.18352 -2.1543,-0.58087 l -27.6187,-15.62119 c -2.5248,-1.42865 -3.6082,-5.04731 -2.4173,-8.08357 1.1822,-3.02415 4.2076,-4.34664 6.7388,-2.89979 l 27.6185,15.62119 c 2.5248,1.42866 3.6083,5.04732 2.4161,8.08359 -0.8597,2.19303 -2.6841,3.48064 -4.5831,3.48064 z"
     fill="#305d8a"
     id="path1066"
     style="stroke-width:1.38472" />
  <line
     x1="1707.6162"
     x2="1706.099"
     y1="854.58051"
     y2="832.99908"
     fill="#ffffff"
     id="line1068"
     style="stroke-width:1.38472" />
  <path
     d="m 1707.6163,860.6622 c -2.6071,0 -4.8209,-2.39625 -5.0371,-5.5675 l -1.5032,-21.5815 c -0.2377,-3.3396 1.8333,-6.27427 4.6223,-6.55332 2.8434,-0.39736 5.2317,2.20061 5.463,5.54476 l 1.502,21.5815 c 0.2377,3.33808 -1.8333,6.27426 -4.6223,6.55332 -0.1428,0.0166 -0.2857,0.0228 -0.4247,0.0228 z"
     fill="#305d8a"
     id="path1070"
     style="stroke-width:1.38472" />
  <line
     x1="1690.9275"
     x2="1667.4116"
     y1="876.89001"
     y2="860.66223"
     fill="#ffffff"
     id="line1072"
     style="stroke-width:1.38472" />
  <path
     d="m 1690.9275,882.95652 c -0.8597,0 -1.7258,-0.26086 -2.5261,-0.81291 l -23.4489,-16.22631 c -2.4224,-1.6789 -3.253,-5.39159 -1.8547,-8.29743 1.3945,-2.9013 4.4793,-3.8962 6.9169,-2.22337 l 23.4503,16.22632 c 2.421,1.6789 3.2517,5.39006 1.8533,8.29743 -0.9393,1.94582 -2.6398,3.03627 -4.3908,3.03627 z"
     fill="#305d8a"
     id="path1074"
     style="stroke-width:1.38472" />
  <line
     x1="1739.8557"
     x2="1750.9817"
     y1="876.89001"
     y2="874.84259"
     fill="#ffffff"
     id="line1076"
     style="stroke-width:1.38472" />
  <path
     d="m 1739.8557,882.95652 c -2.4577,0 -4.6121,-2.14754 -4.9977,-5.15347 -0.4261,-3.31534 1.4717,-6.41076 4.2367,-6.92034 l 11.0739,-2.03986 c 2.7651,-0.51565 5.3405,1.76686 5.769,5.08371 0.4261,3.31534 -1.4728,6.41076 -4.2367,6.92034 l -11.0752,2.03985 c -0.2566,0.0456 -0.5184,0.0698 -0.77,0.0698 z"
     fill="#305d8a"
     id="path1078"
     style="stroke-width:1.38472" />
  <line
     x1="1750.9817"
     x2="1768.0496"
     y1="1112.3907"
     y2="1088.8831"
     fill="#ffffff"
     id="line1080"
     style="stroke-width:1.38472" />
  <path
     d="m 1750.9816,1118.4573 c -1.1859,0 -2.3781,-0.4975 -3.3365,-1.506 -2.1012,-2.2128 -2.3149,-6.0498 -0.4703,-8.5689 l 17.1262,-23.4394 c 1.8433,-2.5267 5.0521,-2.7633 7.1433,-0.5627 2.1013,2.2113 2.3136,6.0498 0.469,8.5704 l -17.1249,23.4364 c -1.0001,1.3695 -2.4022,2.0702 -3.8068,2.0702 z"
     fill="#305d8a"
     id="path1082"
     style="stroke-width:1.38472" />
  <line
     x1="1837.0803"
     x2="1864.8948"
     y1="1063.4041"
     y2="1088.8831"
     fill="#ffffff"
     id="line1084"
     style="stroke-width:1.38472" />
  <path
     d="m 1864.8948,1094.9496 c -1.0733,0 -2.1556,-0.411 -3.071,-1.2512 l -27.8436,-25.5656 c -2.22,-2.0414 -2.6449,-5.8481 -0.9431,-8.5113 1.6954,-2.6632 4.889,-3.1667 7.094,-1.1329 l 27.8436,25.5672 c 2.22,2.0413 2.6449,5.8465 0.9431,8.5097 -0.9925,1.5652 -2.4995,2.3841 -4.023,2.3841 z"
     fill="#305d8a"
     id="path1086"
     style="stroke-width:1.38472" />
  <line
     x1="1829.1151"
     x2="1832.0231"
     y1="1096.163"
     y2="1106.3242"
     fill="#ffffff"
     id="line1088"
     style="stroke-width:1.38472" />
  <path
     d="m 1832.0231,1112.3908 c -2.1013,0 -4.0647,-1.5819 -4.7866,-4.0964 l -2.8915,-10.0946 c -0.9103,-3.1728 0.4943,-6.6292 3.1393,-7.7166 2.6499,-1.0965 5.5262,0.6006 6.4314,3.7658 l 2.8927,10.0946 c 0.9091,3.1728 -0.4956,6.6291 -3.1392,7.715 -0.545,0.2275 -1.1024,0.3322 -1.6461,0.3322 z"
     fill="#305d8a"
     id="path1090"
     style="stroke-width:1.38472" />
  <line
     x1="1804.4613"
     x2="1797.3813"
     y1="1032.6166"
     y2="1001.9808"
     fill="#ffffff"
     id="line1092"
     style="stroke-width:1.38472" />
  <path
     d="m 1804.4614,1038.683 c -2.215,0 -4.2518,-1.7607 -4.8751,-4.4482 l -7.0687,-30.5371 c -0.7472,-3.232 0.8294,-6.57761 3.5235,-7.47849 2.6956,-0.88874 5.4833,0.99642 6.2344,4.22829 l 7.0711,30.5372 c 0.7472,3.2319 -0.8306,6.5776 -3.5248,7.4784 -0.4565,0.1487 -0.9115,0.2199 -1.3604,0.2199 z"
     fill="#305d8a"
     id="path1094"
     style="stroke-width:1.38472" />
  <line
     x1="1834.5518"
     x2="1839.6089"
     y1="1006.0757"
     y2="993.94275"
     fill="#ffffff"
     id="line1096"
     style="stroke-width:1.38472" />
  <path
     d="m 1834.5517,1012.1422 c -0.7611,0 -1.5323,-0.2078 -2.258,-0.64 -2.5021,-1.5 -3.5148,-5.1489 -2.2644,-8.1503 l 5.0623,-12.14512 c 1.2503,-3.00139 4.296,-4.21166 6.7942,-2.71626 2.5021,1.49993 3.5135,5.14892 2.2632,8.14879 l -5.0636,12.14509 c -0.8888,2.1293 -2.674,3.3578 -4.5337,3.3578 z"
     fill="#305d8a"
     id="path1098"
     style="stroke-width:1.38472" />
  <line
     x1="1854.7804"
     x2="1882.595"
     y1="1032.6166"
     y2="1024.2751"
     fill="#ffffff"
     id="line1100"
     style="stroke-width:1.38472" />
  <path
     d="m 1854.7804,1038.683 c -2.2744,0 -4.3403,-1.8517 -4.9092,-4.615 -0.6727,-3.2547 0.9836,-6.5458 3.698,-7.3526 l 27.8436,-8.2671 c 2.7107,-0.7902 5.458,1.1784 6.1306,4.4346 0.6727,3.2562 -0.9823,6.5473 -3.6968,7.3556 l -27.8448,8.2671 c -0.411,0.1182 -0.8168,0.1774 -1.2214,0.1774 z"
     fill="#305d8a"
     id="path1102"
     style="stroke-width:1.38472" />
  <line
     x1="1864.8948"
     x2="1874.1243"
     y1="1048.8444"
     y2="1049.7545"
     fill="#ffffff"
     id="line1104"
     style="stroke-width:1.38472" />
  <path
     d="m 1874.1242,1055.8209 c -0.1429,0 -0.2921,-0.01 -0.44,-0.024 l -9.28,-0.9539 c -2.784,-0.2852 -4.851,-3.2274 -4.6083,-6.5715 0.2377,-3.3321 2.66,-5.9437 5.4769,-5.5281 l 9.2813,0.9539 c 2.7826,0.2852 4.8485,3.2274 4.6084,6.5716 -0.2277,3.1636 -2.4376,5.5523 -5.0383,5.5523 z"
     fill="#305d8a"
     id="path1106"
     style="stroke-width:1.38472" />
  <line
     x1="1626.9541"
     x2="1632.0112"
     y1="890.69122"
     y2="860.32861"
     fill="#ffffff"
     id="line1108"
     style="stroke-width:1.38472" />
  <path
     d="m 1626.954,896.77292 c -0.3325,0 -0.6612,-0.0348 -0.9988,-0.11823 -2.7384,-0.65822 -4.5186,-3.85525 -3.9699,-7.14631 l 5.0623,-30.36425 c 0.5487,-3.29107 3.1986,-5.45073 5.9573,-4.76218 2.7385,0.65821 4.5187,3.85524 3.9713,7.1463 l -5.0636,30.36577 c -0.4791,2.88764 -2.5956,4.87896 -4.9586,4.87896 z"
     fill="#305d8a"
     id="path1110"
     style="stroke-width:1.38472" />
  <line
     x1="1605.4611"
     x2="1593.1973"
     y1="888.0675"
     y2="876.89001"
     fill="#ffffff"
     id="line1112"
     style="stroke-width:1.38472" />
  <path
     d="m 1605.4609,894.14917 c -1.0683,0 -2.1417,-0.40342 -3.0557,-1.23907 l -12.2763,-11.18507 c -2.2303,-2.02772 -2.6652,-5.83596 -0.9698,-8.50521 1.6866,-2.67987 4.8714,-3.19097 7.0889,-1.16173 l 12.2764,11.18506 c 2.2302,2.02774 2.6639,5.83596 0.9696,8.5037 -0.9937,1.57729 -2.5057,2.40232 -4.0331,2.40232 z"
     fill="#305d8a"
     id="path1114"
     style="stroke-width:1.38472" />
  <line
     x1="1605.4611"
     x2="1574.8649"
     y1="1015.1754"
     y2="1024.2751"
     fill="#ffffff"
     id="line1116"
     style="stroke-width:1.38472" />
  <path
     d="m 1574.865,1030.3416 c -2.2694,0 -4.3366,-1.8442 -4.9094,-4.6074 -0.6725,-3.2562 0.9825,-6.5534 3.6918,-7.3602 l 30.6087,-9.1103 c 2.7093,-0.7841 5.458,1.1738 6.1369,4.43 0.6714,3.2547 -0.9837,6.5533 -3.693,7.3602 l -30.6087,9.1103 c -0.4109,0.1182 -0.8217,0.1774 -1.2263,0.1774 z"
     fill="#305d8a"
     id="path1118"
     style="stroke-width:1.38472" />
  <line
     x1="1626.9541"
     x2="1605.4611"
     y1="970.11664"
     y2="961.54779"
     fill="#ffffff"
     id="line1120"
     style="stroke-width:1.38472" />
  <path
     d="m 1626.954,976.1983 c -0.5285,0 -1.0683,-0.10003 -1.5968,-0.30938 l -21.4766,-8.57496 c -2.6563,-1.06165 -4.0875,-4.50133 -3.2088,-7.68017 0.88,-3.18491 3.7537,-4.88655 6.4024,-3.84918 l 21.4753,8.57648 c 2.6563,1.06163 4.0888,4.50133 3.2101,7.68016 -0.708,2.54945 -2.6841,4.15705 -4.8056,4.15705 z"
     fill="#305d8a"
     id="path1122"
     style="stroke-width:1.38472" />
  <line
     x1="1646.5507"
     x2="1650.5964"
     y1="928.1366"
     y2="902.3996"
     fill="#ffffff"
     id="line1124"
     style="stroke-width:1.38472" />
  <path
     d="m 1646.5506,934.21827 c -0.306,0 -0.617,-0.0304 -0.9292,-0.10161 -2.7487,-0.6112 -4.5629,-3.78397 -4.0546,-7.0811 l 3.9851,-25.73855 c 0.5082,-3.29714 3.1544,-5.49776 5.9029,-4.86381 2.7499,0.6112 4.5629,3.78397 4.0534,7.0811 l -3.9839,25.73856 c -0.4538,2.92405 -2.5804,4.96541 -4.9737,4.96541 z"
     fill="#305d8a"
     id="path1126"
     style="stroke-width:1.38472" />
  <line
     x1="1686.8816"
     x2="1702.8119"
     y1="932.1861"
     y2="902.3996"
     fill="#ffffff"
     id="line1128"
     style="stroke-width:1.38472" />
  <path
     d="m 1686.8818,938.26764 c -0.9395,0 -1.8939,-0.31545 -2.7386,-0.97215 -2.3541,-1.81388 -3.028,-5.57509 -1.5082,-8.39297 l 16.0338,-29.78945 c 1.5171,-2.82243 4.6576,-3.63079 6.9954,-1.80933 2.3527,1.81388 3.0267,5.57509 1.5082,8.39146 l -16.0338,29.79097 c -0.9684,1.80326 -2.5943,2.78147 -4.2568,2.78147 z"
     fill="#305d8a"
     id="path1130"
     style="stroke-width:1.38472" />
  <line
     x1="1699.5247"
     x2="1728.2242"
     y1="961.54779"
     y2="965.82471"
     fill="#ffffff"
     id="line1132"
     style="stroke-width:1.38472" />
  <path
     d="m 1728.2243,971.90627 c -0.2074,0 -0.4198,-0.0122 -0.6335,-0.0486 l -28.6894,-4.28749 c -2.7726,-0.41556 -4.7411,-3.44576 -4.3947,-6.77929 0.3452,-3.32746 2.832,-5.66913 5.6501,-5.27328 l 28.6908,4.28748 c 2.7726,0.41555 4.7398,3.44576 4.3946,6.77928 -0.3161,3.0742 -2.5033,5.32182 -5.0179,5.32182 z"
     fill="#305d8a"
     id="path1134"
     style="stroke-width:1.38472" />
  <line
     x1="1578.1521"
     x2="1550.9696"
     y1="987.39099"
     y2="978.74622"
     fill="#ffffff"
     id="line1136"
     style="stroke-width:1.38472" />
  <path
     d="m 1578.1522,993.47261 c -0.4299,0 -0.8699,-0.0638 -1.3036,-0.2002 l -27.1382,-8.64169 c -2.6992,-0.85992 -4.3112,-4.18739 -3.5944,-7.42993 0.7157,-3.23798 3.501,-5.1656 6.1939,-4.31175 l 27.1382,8.6417 c 2.6992,0.85993 4.3112,4.18739 3.5944,7.42992 -0.6044,2.71475 -2.6501,4.51195 -4.8903,4.51195 z"
     fill="#305d8a"
     id="path1138"
     style="stroke-width:1.38472" />
  <line
     x1="1564.4978"
     x2="1574.8649"
     y1="946.36639"
     y2="944.44025"
     fill="#ffffff"
     id="line1140"
     style="stroke-width:1.38472" />
  <path
     d="m 1564.4977,952.43288 c -2.4514,0 -4.6083,-2.14147 -4.9978,-5.14134 -0.4311,-3.31686 1.4628,-6.41683 4.2266,-6.93399 l 10.2889,-1.91549 c 2.789,-0.49897 5.3542,1.75624 5.7791,5.07158 0.4311,3.31533 -1.4628,6.41681 -4.2279,6.93247 l -10.2875,1.917 c -0.263,0.0454 -0.5235,0.0698 -0.7814,0.0698 z"
     fill="#305d8a"
     id="path1142"
     style="stroke-width:1.38472" />
  <line
     x1="1662.3545"
     x2="1667.4116"
     y1="983.0686"
     y2="965.82471"
     fill="#ffffff"
     id="line1144"
     style="stroke-width:1.38472" />
  <path
     d="m 1662.3543,989.15024 c -0.5588,0 -1.1277,-0.11221 -1.6815,-0.34426 -2.6398,-1.11473 -4.0243,-4.58323 -3.0938,-7.74539 l 5.0624,-17.24093 c 0.9279,-3.16671 3.8308,-4.80921 6.4567,-3.71268 2.6386,1.11471 4.0243,4.58473 3.0938,7.74537 l -5.0636,17.24093 c -0.7295,2.49788 -2.6878,4.05696 -4.774,4.05696 z"
     fill="#305d8a"
     id="path1146"
     style="stroke-width:1.38472" />
  <line
     x1="1596.6108"
     x2="1583.2092"
     y1="918.02075"
     y2="902.3996"
     fill="#ffffff"
     id="line1148"
     style="stroke-width:1.38472" />
  <path
     d="m 1596.6109,924.10242 c -1.2757,0 -2.5527,-0.5748 -3.5362,-1.72592 l -13.3624,-15.62119 c -2.0027,-2.3371 -2.0418,-6.18629 -0.088,-8.58709 1.9533,-2.40233 5.1609,-2.43721 7.1585,-0.10618 l 13.3636,15.62118 c 2.0026,2.33712 2.0406,6.18478 0.088,8.58711 -0.9887,1.22088 -2.3087,1.83208 -3.6235,1.83208 z"
     fill="#305d8a"
     id="path1150"
     style="stroke-width:1.38472" />
  <line
     x1="1629.4827"
     x2="1637.9534"
     y1="1001.9808"
     y2="1006.0757"
     fill="#ffffff"
     id="line1152"
     style="stroke-width:1.38472" />
  <path
     d="m 1637.9534,1012.1422 c -0.6284,0 -1.2655,-0.1365 -1.8838,-0.4322 l -8.4354,-4.0509 c -2.5956,-1.2512 -3.8561,-4.7865 -2.8181,-7.9001 1.043,-3.11362 3.9939,-4.61963 6.5845,-3.38054 l 8.4353,4.05084 c 2.5957,1.2513 3.8574,4.785 2.8181,7.8986 -0.7951,2.3735 -2.6942,3.8143 -4.7006,3.8143 z"
     fill="#305d8a"
     id="path1154"
     style="stroke-width:1.38472" />
  <line
     x1="1583.2092"
     x2="1564.4978"
     y1="1150.7614"
     y2="1121.4905"
     fill="#ffffff"
     id="line1156"
     style="stroke-width:1.38472" />
  <path
     d="m 1583.2093,1156.8277 c -1.5272,0 -3.0355,-0.8235 -4.0331,-2.3947 l -18.6344,-29.3527 c -1.6905,-2.6692 -1.2593,-6.4759 0.9646,-8.5097 2.2252,-2.0338 5.3998,-1.5182 7.0952,1.1587 l 18.6333,29.3496 c 1.6903,2.6693 1.2605,6.4775 -0.9647,8.5098 -0.9154,0.8387 -1.9926,1.239 -3.0609,1.239 z"
     fill="#305d8a"
     id="path1158"
     style="stroke-width:1.38472" />
  <line
     x1="1556.0269"
     x2="1547.1768"
     y1="1145.6047"
     y2="1136.2018"
     fill="#ffffff"
     id="line1160"
     style="stroke-width:1.38472" />
  <path
     d="m 1556.0269,1151.6712 c -1.1947,0 -2.397,-0.5035 -3.3618,-1.5302 l -8.9285,-9.5032 c -2.0911,-2.2233 -2.2794,-6.0589 -0.4247,-8.5734 1.8535,-2.5085 5.0622,-2.736 7.1471,-0.5111 l 8.9297,9.5016 c 2.0912,2.2234 2.2795,6.0604 0.426,8.575 -0.9987,1.3528 -2.3932,2.0413 -3.7878,2.0413 z"
     fill="#305d8a"
     id="path1162"
     style="stroke-width:1.38472" />
  <line
     x1="1564.4978"
     x2="1541.7404"
     y1="1174.5721"
     y2="1185.1885"
     fill="#ffffff"
     id="line1164"
     style="stroke-width:1.38472" />
  <path
     d="m 1541.7403,1191.255 c -2.0278,0 -3.9395,-1.4726 -4.7208,-3.881 -1.009,-3.1258 0.2869,-6.6428 2.8926,-7.8576 l 22.8497,-10.6285 c 2.5918,-1.2042 5.5326,0.3397 6.5516,3.47 1.009,3.1258 -0.2869,6.6428 -2.8914,7.8576 l -22.8509,10.6285 c -0.5993,0.2791 -1.2238,0.411 -1.8308,0.411 z"
     fill="#305d8a"
     id="path1166"
     style="stroke-width:1.38472" />
  <line
     x1="1564.4978"
     x2="1556.0269"
     y1="1198.6864"
     y2="1211.5778"
     fill="#ffffff"
     id="line1168"
     style="stroke-width:1.38472" />
  <path
     d="m 1556.0269,1217.6441 c -1.1011,0 -2.2099,-0.4276 -3.138,-1.3178 -2.1898,-2.0808 -2.5602,-5.9012 -0.8204,-8.5281 l 8.5048,-12.8578 c 1.7347,-2.6268 4.9194,-3.0772 7.1091,-0.9843 2.1899,2.0823 2.5591,5.9012 0.8194,8.528 l -8.5037,12.8594 c -1,1.5106 -2.478,2.3006 -3.9712,2.3006 z"
     fill="#305d8a"
     id="path1170"
     style="stroke-width:1.38472" />
  <line
     x1="1583.2092"
     x2="1578.1521"
     y1="1188.2217"
     y2="1217.6443"
     fill="#ffffff"
     id="line1172"
     style="stroke-width:1.38472" />
  <path
     d="m 1578.1522,1223.7107 c -0.3402,0 -0.6815,-0.041 -1.0279,-0.1244 -2.7398,-0.6825 -4.4997,-3.8962 -3.9358,-7.1752 l 5.0623,-29.3526 c 0.5638,-3.2865 3.2353,-5.3855 5.9826,-4.7197 2.7384,0.6825 4.4996,3.8962 3.9358,7.1751 l -5.0635,29.3512 c -0.4931,2.871 -2.6045,4.8456 -4.9535,4.8456 z"
     fill="#305d8a"
     id="path1174"
     style="stroke-width:1.38472" />
  <line
     x1="1754.3953"
     x2="1764.5095"
     y1="1032.6166"
     y2="996.97601"
     fill="#ffffff"
     id="line1176"
     style="stroke-width:1.38472" />
  <path
     d="m 1754.3952,1038.683 c -0.5436,0 -1.0924,-0.1 -1.636,-0.326 -2.6449,-1.0859 -4.0596,-4.5317 -3.1544,-7.709 l 10.1258,-35.59659 c 0.8988,-3.17276 3.7815,-4.88048 6.4276,-3.78396 2.6449,1.08437 4.0584,4.53014 3.1545,7.70898 l -10.1271,35.59507 c -0.7168,2.5221 -2.6841,4.1115 -4.7904,4.1115 z"
     fill="#305d8a"
     id="path1178"
     style="stroke-width:1.38472" />
  <line
     x1="1735.5571"
     x2="1737.2008"
     y1="1001.9808"
     y2="987.39099"
     fill="#ffffff"
     id="line1180"
     style="stroke-width:1.38472" />
  <path
     d="m 1735.5571,1008.0473 c -0.2123,0 -0.4247,-0.018 -0.6422,-0.047 -2.7739,-0.4201 -4.7373,-3.4624 -4.3858,-6.7914 l 1.5475,-14.6369 c 0.3552,-3.32746 2.8586,-5.6221 5.6615,-5.26115 2.7726,0.42162 4.7361,3.46396 4.3858,6.79143 l -1.5474,14.63692 c -0.3275,3.0666 -2.5071,5.3081 -5.0194,5.3081 z"
     fill="#305d8a"
     id="path1182"
     style="stroke-width:1.38472" />
  <line
     x1="1646.5507"
     x2="1621.0118"
     y1="1049.7545"
     y2="1028.37"
     fill="#ffffff"
     id="line1184"
     style="stroke-width:1.38472" />
  <path
     d="m 1646.5506,1055.8209 c -0.9987,0 -2.0027,-0.3489 -2.8876,-1.0844 l -25.5439,-21.3101 c -2.2947,-1.9154 -2.8637,-5.6979 -1.2656,-8.4551 1.5905,-2.7587 4.7399,-3.4412 7.0485,-1.5197 l 25.5451,21.3085 c 2.2935,1.9171 2.8637,5.701 1.2656,8.4582 -0.9837,1.6956 -2.5602,2.6026 -4.1621,2.6026 z"
     fill="#305d8a"
     id="path1186"
     style="stroke-width:1.38472" />
  <line
     x1="1687.6404"
     x2="1692.6975"
     y1="1000.0092"
     y2="981.79468"
     fill="#ffffff"
     id="line1188"
     style="stroke-width:1.38472" />
  <path
     d="m 1687.6403,1006.0757 c -0.5284,0 -1.0671,-0.1 -1.6019,-0.3154 -2.65,-1.0541 -4.0823,-4.4953 -3.1986,-7.67868 l 5.0634,-18.21916 c 0.8839,-3.17883 3.7323,-4.91081 6.4025,-3.83704 2.6487,1.05557 4.0824,4.49525 3.1974,7.68016 l -5.0635,18.21912 c -0.7055,2.5434 -2.6778,4.151 -4.7993,4.151 z"
     fill="#305d8a"
     id="path1190"
     style="stroke-width:1.38472" />
  <line
     x1="1679.1696"
     x2="1686.8816"
     y1="1028.37"
     y2="1039.1382"
     fill="#ffffff"
     id="line1192"
     style="stroke-width:1.38472" />
  <path
     d="m 1686.8818,1045.2045 c -1.4174,0 -2.827,-0.7128 -3.8296,-2.099 l -7.6781,-10.6588 c -1.8294,-2.5373 -1.5917,-6.3743 0.5183,-8.5689 2.1115,-2.187 5.3051,-1.9155 7.1434,0.6233 l 7.678,10.6573 c 1.8282,2.5373 1.593,6.3744 -0.5183,8.5689 -0.9596,0.9919 -2.1355,1.4772 -3.3137,1.4772 z"
     fill="#305d8a"
     id="path1194"
     style="stroke-width:1.38472" />
  <line
     x1="1709.3862"
     x2="1706.099"
     y1="1024.2751"
     y2="1055.8209"
     fill="#ffffff"
     id="line1196"
     style="stroke-width:1.38472" />
  <path
     d="m 1706.0991,1061.8873 c -0.2074,0 -0.4211,-0.018 -0.6385,-0.047 -2.7739,-0.4155 -4.7361,-3.4503 -4.3909,-6.7853 l 3.2972,-31.5154 c 0.3452,-3.3153 2.8181,-5.6342 5.6565,-5.2657 2.7739,0.414 4.7361,3.4503 4.3897,6.7839 l -3.296,31.5153 c -0.3212,3.0651 -2.5021,5.3142 -5.018,5.3142 z"
     fill="#305d8a"
     id="path1198"
     style="stroke-width:1.38472" />
  <line
     x1="1786.382"
     x2="1806.6107"
     y1="1067.8021"
     y2="1055.8209"
     fill="#ffffff"
     id="line1200"
     style="stroke-width:1.38472" />
  <path
     d="m 1786.3819,1073.8686 c -1.8686,0 -3.6626,-1.239 -4.5439,-3.3805 -1.2402,-3.006 -0.2123,-6.6489 2.2935,-8.1367 l 20.2515,-12.004 c 2.521,-1.4878 5.5528,-0.2548 6.7817,2.7511 1.2416,3.006 0.2136,6.6504 -2.2921,8.1382 l -20.2516,12.0025 c -0.7219,0.4277 -1.4881,0.6294 -2.2391,0.6294 z"
     fill="#305d8a"
     id="path1202"
     style="stroke-width:1.38472" />
  <line
     x1="1799.025"
     x2="1814.1965"
     y1="1085.0916"
     y2="1085.0916"
     fill="#ffffff"
     id="line1204"
     style="stroke-width:1.38472" />
  <path
     d="m 1814.1964,1091.1581 h -15.188 c -2.7991,0 -5.0622,-2.7163 -5.0622,-6.0741 0,-3.3562 2.2631,-6.0725 5.0622,-6.0725 h 15.188 c 2.7993,0 5.0624,2.7163 5.0624,6.0725 0,3.3578 -2.2631,6.0741 -5.0624,6.0741 z"
     fill="#305d8a"
     id="path1206"
     style="stroke-width:1.38472" />
  <line
     x1="1589.0251"
     x2="1609.2539"
     y1="1112.3907"
     y2="1131.6519"
     fill="#ffffff"
     id="line1208"
     style="stroke-width:1.38472" />
  <path
     d="m 1609.2539,1137.7183 c -1.0987,0 -2.205,-0.4261 -3.1393,-1.3088 l -20.2515,-19.2277 c -2.1885,-2.0823 -2.5602,-5.9027 -0.8243,-8.534 1.7296,-2.6268 4.9042,-3.0788 7.1141,-0.9904 l 20.2516,19.2277 c 2.1885,2.0808 2.5589,5.9012 0.8243,8.534 -1,1.5106 -2.4843,2.2992 -3.9749,2.2992 z"
     fill="#305d8a"
     id="path1210"
     style="stroke-width:1.38472" />
  <line
     x1="1605.4611"
     x2="1598.2544"
     y1="1095.7079"
     y2="1094.1913"
     fill="#ffffff"
     id="line1212"
     style="stroke-width:1.38472" />
  <path
     d="m 1605.4609,1101.7744 c -0.3021,0 -0.6042,-0.032 -0.9115,-0.095 l -7.2128,-1.5728 c -2.7486,-0.6036 -4.5767,-3.7642 -4.0787,-7.0629 0.4995,-3.3032 3.1241,-5.4674 5.8879,-4.8926 l 7.2128,1.5712 c 2.7499,0.6037 4.5781,3.7658 4.0799,7.0629 -0.4451,2.9377 -2.5767,4.9897 -4.9776,4.9897 z"
     fill="#305d8a"
     id="path1214"
     style="stroke-width:1.38472" />
  <line
     x1="1629.4827"
     x2="1648.5736"
     y1="1076.1434"
     y2="1094.1913"
     fill="#ffffff"
     id="line1216"
     style="stroke-width:1.38472" />
  <path
     d="m 1648.5735,1100.2578 c -1.0936,0 -2.1948,-0.4201 -3.1254,-1.2967 l -19.0985,-18.0068 c -2.1947,-2.0687 -2.5804,-5.8891 -0.8495,-8.528 1.7245,-2.6328 4.9042,-3.1075 7.1091,-1.0191 l 19.0972,18.0053 c 2.1949,2.0686 2.5804,5.889 0.8509,8.5279 -0.9987,1.5242 -2.4818,2.3174 -3.9838,2.3174 z"
     fill="#305d8a"
     id="path1218"
     style="stroke-width:1.38472" />
  <line
     x1="1667.4116"
     x2="1675.2502"
     y1="1080.9968"
     y2="1096.163"
     fill="#ffffff"
     id="line1220"
     style="stroke-width:1.38472" />
  <path
     d="m 1675.2502,1102.2294 c -1.7017,0 -3.3567,-1.0267 -4.3163,-2.8815 l -7.8222,-15.2118 c -1.4628,-2.8588 -0.7257,-6.6018 1.6524,-8.3626 2.3833,-1.7608 5.4984,-0.866 6.9714,1.9807 l 7.8221,15.2117 c 1.4628,2.8588 0.7257,6.6019 -1.6523,8.3627 -0.832,0.6096 -1.7511,0.9008 -2.6551,0.9008 z"
     fill="#305d8a"
     id="path1222"
     style="stroke-width:1.38472" />
  <line
     x1="1759.5787"
     x2="1774.2448"
     y1="1170.0223"
     y2="1150.7614"
     fill="#ffffff"
     id="line1224"
     style="stroke-width:1.38472" />
  <path
     d="m 1759.5788,1176.0888 c -1.2264,0 -2.4515,-0.5278 -3.4211,-1.5955 -2.0621,-2.2719 -2.1999,-6.1074 -0.3124,-8.581 l 14.7051,-19.2338 c 1.8876,-2.4736 5.0963,-2.6389 7.1522,-0.3731 2.0632,2.2704 2.1999,6.1075 0.3122,8.5811 l -14.7038,19.2337 c -0.9988,1.3059 -2.363,1.9686 -3.7322,1.9686 z"
     fill="#305d8a"
     id="path1226"
     style="stroke-width:1.38472" />
  <line
     x1="1786.382"
     x2="1796.4965"
     y1="1179.8804"
     y2="1176.0887"
     fill="#ffffff"
     id="line1228"
     style="stroke-width:1.38472" />
  <path
     d="m 1786.3819,1185.9468 c -2.1555,0 -4.1532,-1.6622 -4.8296,-4.2647 -0.8357,-3.197 0.6537,-6.6079 3.3226,-7.6043 l 10.1245,-3.7961 c 2.6601,-1.0192 5.5035,0.778 6.3392,3.9856 0.8357,3.1956 -0.6536,6.6065 -3.3226,7.6029 l -10.1257,3.7961 c -0.4994,0.1911 -1.009,0.2805 -1.5084,0.2805 z"
     fill="#305d8a"
     id="path1230"
     style="stroke-width:1.38472" />
  <line
     x1="1800.9214"
     x2="1830.506"
     y1="1140.9033"
     y2="1136.2018"
     fill="#ffffff"
     id="line1232"
     style="stroke-width:1.38472" />
  <path
     d="m 1800.9214,1146.9697 c -2.5021,0 -4.6703,-2.2173 -5.013,-5.2672 -0.3705,-3.326 1.5766,-6.3804 4.3467,-6.8248 l 29.6199,-4.7516 c 2.803,-0.4095 5.319,1.8973 5.6894,5.2142 0.3717,3.3274 -1.5766,6.3804 -4.3454,6.8263 l -29.62,4.75 c -0.2275,0.036 -0.4539,0.053 -0.6776,0.053 z"
     fill="#305d8a"
     id="path1234"
     style="stroke-width:1.38472" />
  <line
     x1="1820.0123"
     x2="1826.9658"
     y1="1170.0223"
     y2="1166.5342"
     fill="#ffffff"
     id="line1236"
     style="stroke-width:1.38472" />
  <path
     d="m 1820.0122,1176.0888 c -1.9583,0 -3.8207,-1.3695 -4.6475,-3.6641 -1.1075,-3.0788 0.075,-6.655 2.6411,-7.9835 l 6.8462,-3.5474 c 2.5767,-1.327 5.5528,0.096 6.6552,3.1682 1.1076,3.0757 -0.075,6.6534 -2.6398,7.982 l -6.8475,3.5474 c -0.6536,0.3397 -1.335,0.4974 -2.0077,0.4974 z"
     fill="#305d8a"
     id="path1238"
     style="stroke-width:1.38472" />
  <line
     x1="1616.2075"
     x2="1596.6108"
     y1="1217.6443"
     y2="1236.9052"
     fill="#ffffff"
     id="line1240"
     style="stroke-width:1.38472" />
  <path
     d="m 1596.6109,1242.9718 c -1.4678,0 -2.9256,-0.7584 -3.9243,-2.2295 -1.7688,-2.598 -1.449,-6.4274 0.7168,-8.5461 l 19.6358,-19.2338 c 2.1771,-2.1232 5.3594,-1.738 7.1256,0.8599 1.77,2.5964 1.4489,6.4274 -0.7169,8.5447 l -19.6358,19.2337 c -0.9457,0.9206 -2.0785,1.3711 -3.2012,1.3711 z"
     fill="#305d8a"
     id="path1242"
     style="stroke-width:1.38472" />
  <line
     x1="1626.9541"
     x2="1646.5507"
     y1="1188.2217"
     y2="1192.3168"
     fill="#ffffff"
     id="line1244"
     style="stroke-width:1.38472" />
  <path
     d="m 1646.5506,1198.3831 c -0.2831,0 -0.574,-0.03 -0.861,-0.088 l -19.637,-4.0463 c -2.7587,-0.5627 -4.6084,-3.7051 -4.1343,-7.0083 0.4703,-3.3047 3.0862,-5.5159 5.8449,-4.9593 l 19.637,4.0448 c 2.7587,0.5642 4.6084,3.7066 4.1331,7.0098 -0.4186,2.9604 -2.5603,5.0473 -4.9827,5.0473 z"
     fill="#305d8a"
     id="path1246"
     style="stroke-width:1.38472" />
  <line
     x1="1638.965"
     x2="1658.1823"
     y1="1232.8104"
     y2="1217.6443"
     fill="#ffffff"
     id="line1248"
     style="stroke-width:1.38472" />
  <path
     d="m 1638.9648,1238.8769 c -1.641,0 -3.253,-0.9554 -4.2278,-2.7238 -1.5424,-2.7982 -0.904,-6.564 1.43,-8.4157 l 19.1338,-15.183 c 2.3288,-1.8564 5.4668,-1.0904 7.0157,1.7153 1.5423,2.7996 0.9038,6.564 -1.4288,8.4157 l -19.1338,15.1829 c -0.861,0.681 -1.8295,1.0086 -2.7891,1.0086 z"
     fill="#305d8a"
     id="path1250"
     style="stroke-width:1.38472" />
  <line
     x1="1694.8468"
     x2="1686.8816"
     y1="1202.933"
     y2="1227.199"
     fill="#ffffff"
     id="line1252"
     style="stroke-width:1.38472" />
  <path
     d="m 1686.8818,1233.2654 c -0.6221,0 -1.2505,-0.1365 -1.8636,-0.4262 -2.6007,-1.233 -3.8713,-4.7636 -2.8434,-7.8818 l 8.0156,-24.2918 c 1.0329,-3.1212 3.9888,-4.6393 6.5692,-3.4093 2.6007,1.233 3.8727,4.7622 2.8435,7.8803 l -8.0144,24.2932 c -0.7852,2.3842 -2.6942,3.8356 -4.7069,3.8356 z"
     fill="#305d8a"
     id="path1254"
     style="stroke-width:1.38472" />
  <line
     x1="1713.8113"
     x2="1718.2362"
     y1="1225.2273"
     y2="1236.9052"
     fill="#ffffff"
     id="line1256"
     style="stroke-width:1.38472" />
  <path
     d="m 1718.2363,1242.9718 c -1.9192,0 -3.7575,-1.3089 -4.6084,-3.5399 l -4.4503,-11.6431 c -1.1669,-3.0468 -0.049,-6.6533 2.4919,-8.0531 2.5804,-1.3894 5.5579,-0.053 6.7147,2.9892 l 4.4504,11.6416 c 1.1669,3.0498 0.049,6.6549 -2.492,8.0547 -0.6865,0.3746 -1.4046,0.5506 -2.1063,0.5506 z"
     fill="#305d8a"
     id="path1258"
     style="stroke-width:1.38472" />
  <line
     x1="1664.8831"
     x2="1638.965"
     y1="1145.6047"
     y2="1136.2018"
     fill="#ffffff"
     id="line1260"
     style="stroke-width:1.38472" />
  <path
     d="m 1664.8829,1151.6712 c -0.4905,0 -0.9886,-0.083 -1.4843,-0.2669 l -25.8865,-9.5031 c -2.6689,-0.9782 -4.1785,-4.377 -3.3566,-7.5847 0.8167,-3.2076 3.6349,-5.0275 6.324,-4.0266 l 25.8864,9.5016 c 2.669,0.9798 4.1785,4.377 3.3567,7.5862 -0.6675,2.6146 -2.6688,4.2935 -4.8397,4.2935 z"
     fill="#305d8a"
     id="path1262"
     style="stroke-width:1.38472" />
  <line
     x1="1728.2242"
     x2="1732.3964"
     y1="1178.0604"
     y2="1166.5342"
     fill="#ffffff"
     id="line1264"
     style="stroke-width:1.38472" />
  <path
     d="m 1728.2243,1184.1269 c -0.6777,0 -1.3692,-0.1653 -2.0318,-0.5096 -2.5615,-1.3528 -3.7221,-4.9351 -2.6007,-8.0062 l 4.2165,-11.5187 c 1.1278,-3.0697 4.0988,-4.4528 6.6742,-3.1197 2.5602,1.3528 3.7221,4.935 2.6007,8.0062 l -4.2177,11.5187 c -0.8345,2.2765 -2.6943,3.6293 -4.6412,3.6293 z"
     fill="#305d8a"
     id="path1266"
     style="stroke-width:1.38472" />
  <line
     x1="1759.4524"
     x2="1775.3824"
     y1="1215.066"
     y2="1219.1609"
     fill="#ffffff"
     id="line1268"
     style="stroke-width:1.38472" />
  <path
     d="m 1775.3825,1225.2273 c -0.3438,0 -0.6966,-0.04 -1.048,-0.1289 l -16.0326,-4.0509 c -2.7334,-0.6946 -4.4908,-3.9144 -3.9104,-7.1948 0.5777,-3.2789 3.282,-5.3901 5.9965,-4.6895 l 16.0338,4.0494 c 2.7322,0.6947 4.4895,3.9145 3.9104,7.1933 -0.5044,2.8589 -2.6043,4.8214 -4.9497,4.8214 z"
     fill="#305d8a"
     id="path1270"
     style="stroke-width:1.38472" />
  <line
     x1="1561.084"
     x2="1859.8376"
     y1="1333.969"
     y2="1333.969"
     fill="#ffffff"
     id="line1272"
     style="stroke-width:1.38472" />
  <path
     d="m 1859.8376,1340.0354 h -298.6902 c -2.7979,0 -5.0636,-2.7162 -5.0636,-6.074 0,-3.3563 2.2657,-6.0725 5.0636,-6.0725 h 298.6902 c 2.798,0 5.0623,2.7162 5.0623,6.0725 0,3.3578 -2.2643,6.074 -5.0623,6.074 z"
     fill="#305d8a"
     id="path1274"
     style="stroke-width:1.38472" />
  <path
     d="m 526.66115,1426.6344 c 0,-45.9505 -30.94494,-83.2063 -69.19121,-83.4915 v -11.1501 c 0,-19.0139 -12.85412,-34.4258 -28.70462,-34.4258 H 314.04676 c -15.8505,0 -28.70462,15.4119 -28.70462,34.4258 v 186.2106 c 0,19.0138 12.85412,34.4272 28.70462,34.4272 h 114.71856 c 15.8505,0 28.70462,-15.4134 28.70462,-34.4272 v -8.0775 c 38.24753,-0.2836 69.19121,-37.541 69.19121,-83.4899 z m -69.18995,47.0531 v -94.1078 c 21.47662,0.2792 38.8152,21.2267 38.8152,47.0533 0,25.8265 -17.33858,46.7755 -38.8152,47.0545 z"
     fill="#eae8e1"
     id="path1276"
     style="stroke-width:1.38472" />
  <path
     d="M 428.76659,1558.732 H 314.04802 c -18.61931,0 -33.76686,-18.1675 -33.76686,-40.5013 v -186.2106 c 0,-22.3352 15.14882,-40.4998 33.76686,-40.4998 h 114.71857 c 18.61931,0 33.76685,18.166 33.76685,40.4998 v 5.3143 c 38.58763,3.4032 69.19122,42.2727 69.19122,89.3258 0,47.0531 -30.60359,85.9226 -69.19122,89.3274 v 2.2416 c 0,22.3353 -15.14754,40.5028 -33.76685,40.5028 z M 314.04802,1303.6669 c -13.03743,0 -23.64236,12.7229 -23.64236,28.3547 v 186.2106 c 0,15.6348 10.60493,28.3547 23.64236,28.3547 h 114.71857 c 13.0387,0 23.64237,-12.7213 23.64237,-28.3547 v -8.0775 c 0,-3.338 2.24918,-6.0483 5.0319,-6.0726 35.37378,-0.2608 64.15804,-34.9914 64.15804,-77.4189 0,-42.4274 -28.78426,-77.158 -64.15804,-77.4189 -2.78398,-0.023 -5.0319,-2.7344 -5.0319,-6.0726 v -11.1501 c 0,-15.6334 -10.60494,-28.3547 -23.64237,-28.3547 z m 143.42192,176.1251 c -1.3351,0 -2.60952,-0.628 -3.559,-1.7548 -0.9634,-1.139 -1.50198,-2.6905 -1.50198,-4.3178 v -94.1077 c 0,-1.6244 0.53858,-3.1789 1.50198,-4.3179 0.96466,-1.145 2.32378,-1.867 3.61337,-1.7547 24.16578,0.3139 43.82307,24.1446 43.82307,53.1257 0,28.9825 -19.65729,52.8132 -43.82307,53.1256 -0.019,0 -0.0341,0 -0.0544,0 z m 5.06224,-93.5786 v 80.9057 c 16.22094,-3.1789 28.68945,-20.1817 28.68945,-40.4529 0,-20.271 -12.46851,-37.2738 -28.68945,-40.4528 z"
     fill="#305d8a"
     id="path1278"
     style="stroke-width:1.38472" />
  <g
     opacity="0.2"
     id="g1282"
     transform="matrix(1.2642976,0,0,1.51662,-267.97514,-516.61067)">
    <path
       d="m 573.8,1226.3 v -7.352 c 0,-12.537 -10.167,-22.699 -22.704,-22.699 h -29.352 v 168.18 h 29.352 c 12.537,0 22.704,-10.163 22.704,-22.7 v -5.326 c 30.251,-0.188 54.727,-24.753 54.727,-55.051 0,-30.298 -24.476,-54.864 -54.727,-55.051 z m 0,86.076 v -62.051 c 16.987,0.184 30.701,13.996 30.701,31.025 0,17.029 -13.714,30.842 -30.701,31.026 z"
       fill="#9db6c9"
       id="path1280" />
  </g>
  <line
     x1="315.72574"
     x2="427.09775"
     y1="1321.8358"
     y2="1321.8358"
     fill="#ffffff"
     id="line1284"
     style="stroke-width:1.38472" />
  <path
     d="M 427.09771,1327.9025 H 315.72069 c -2.7979,0 -5.06225,-2.7164 -5.06225,-6.0741 0,-3.3562 2.26435,-6.0726 5.06225,-6.0726 h 111.37702 c 2.7979,0 5.06351,2.7164 5.06351,6.0726 0,3.3577 -2.26561,6.0741 -5.06351,6.0741 z"
     fill="#305d8a"
     id="path1286"
     style="stroke-width:1.38472" />
</svg>
