<?xml version="1.0" ?><svg enable-background="new 0 0 512 512" id="Layer_1" version="1.1" viewBox="0 0 512 512" xml:space="preserve" xmlns="http://www.w3.org/2000/svg" xmlns:xlink="http://www.w3.org/1999/xlink"><g><g><linearGradient gradientUnits="userSpaceOnUse" id="SVGID_1_" x1="-0.0000027" x2="512" y1="256" y2="256"><stop offset="0" style="stop-color:#8DC63F"/><stop offset="1" style="stop-color:#76B83F"/></linearGradient><circle cx="256" cy="256" fill="url(#SVGID_1_)" r="256"/><linearGradient gradientUnits="userSpaceOnUse" id="SVGID_2_" x1="42.6666641" x2="469.3333435" y1="256.0005188" y2="256.0005188"><stop offset="0" style="stop-color:#76B83F"/><stop offset="1" style="stop-color:#8DC63F"/></linearGradient><path d="M256,469.3338623c-117.6315002,0-213.3333435-95.7023926-213.3333435-213.3333435    c0-117.6314545,95.7018356-213.333313,213.3333435-213.333313c117.6357117,0,213.3333435,95.7018661,213.3333435,213.333313    C469.3333435,373.6314697,373.6357117,469.3338623,256,469.3338623z" fill="url(#SVGID_2_)"/></g><path d="M264,159.529068L144,261.5653381l6.3285065,7.3994751l19.4720001-16.5520172v116.0576019h70.6165314   v-63.9840088h47.1669769v63.9840088h70.6148987V252.412796l19.4725342,16.5520172L384,261.5653381L264,159.529068z    M264,271.8730774c-13.0240021,0-23.582962-10.5578918-23.582962-23.5829468   c0-13.0250702,10.55896-23.5834656,23.582962-23.5834656c13.0245056,0,23.5840149,10.5583954,23.5840149,23.5834656   C287.5840149,261.3151855,277.0245056,271.8730774,264,271.8730774z" opacity="0.3"/><path d="M256,151.529068L136,253.5653381l6.3285065,7.3994751l19.4720001-16.5520172v116.0576019h70.6165314   v-63.9840088h47.1669769v63.9840088h70.6148987V244.412796l19.4725342,16.5520172L376,253.5653381L256,151.529068z    M256,263.8730774c-13.0240021,0-23.582962-10.5578766-23.582962-23.5829468S242.9759979,216.706665,256,216.706665   c13.0245056,0,23.5840149,10.5583954,23.5840149,23.5834656S269.0245056,263.8730774,256,263.8730774z" fill="#FFFFFF"/></g></svg>